G75*
%MOIN*%
%OFA0B0*%
%FSLAX25Y25*%
%IPPOS*%
%LPD*%
%AMOC8*
5,1,8,0,0,1.08239X$1,22.5*
%
%ADD10C,0.01000*%
%ADD11C,0.00000*%
%ADD12C,0.00500*%
D10*
X0072300Y0018800D02*
X0072300Y0203261D01*
X0327200Y0203261D01*
X0327200Y0018800D01*
X0072300Y0018800D01*
D11*
X0078394Y0030800D02*
X0078396Y0030953D01*
X0078402Y0031107D01*
X0078412Y0031260D01*
X0078426Y0031412D01*
X0078444Y0031565D01*
X0078466Y0031716D01*
X0078491Y0031867D01*
X0078521Y0032018D01*
X0078555Y0032168D01*
X0078592Y0032316D01*
X0078633Y0032464D01*
X0078678Y0032610D01*
X0078727Y0032756D01*
X0078780Y0032900D01*
X0078836Y0033042D01*
X0078896Y0033183D01*
X0078960Y0033323D01*
X0079027Y0033461D01*
X0079098Y0033597D01*
X0079173Y0033731D01*
X0079250Y0033863D01*
X0079332Y0033993D01*
X0079416Y0034121D01*
X0079504Y0034247D01*
X0079595Y0034370D01*
X0079689Y0034491D01*
X0079787Y0034609D01*
X0079887Y0034725D01*
X0079991Y0034838D01*
X0080097Y0034949D01*
X0080206Y0035057D01*
X0080318Y0035162D01*
X0080432Y0035263D01*
X0080550Y0035362D01*
X0080669Y0035458D01*
X0080791Y0035551D01*
X0080916Y0035640D01*
X0081043Y0035727D01*
X0081172Y0035809D01*
X0081303Y0035889D01*
X0081436Y0035965D01*
X0081571Y0036038D01*
X0081708Y0036107D01*
X0081847Y0036172D01*
X0081987Y0036234D01*
X0082129Y0036292D01*
X0082272Y0036347D01*
X0082417Y0036398D01*
X0082563Y0036445D01*
X0082710Y0036488D01*
X0082858Y0036527D01*
X0083007Y0036563D01*
X0083157Y0036594D01*
X0083308Y0036622D01*
X0083459Y0036646D01*
X0083612Y0036666D01*
X0083764Y0036682D01*
X0083917Y0036694D01*
X0084070Y0036702D01*
X0084223Y0036706D01*
X0084377Y0036706D01*
X0084530Y0036702D01*
X0084683Y0036694D01*
X0084836Y0036682D01*
X0084988Y0036666D01*
X0085141Y0036646D01*
X0085292Y0036622D01*
X0085443Y0036594D01*
X0085593Y0036563D01*
X0085742Y0036527D01*
X0085890Y0036488D01*
X0086037Y0036445D01*
X0086183Y0036398D01*
X0086328Y0036347D01*
X0086471Y0036292D01*
X0086613Y0036234D01*
X0086753Y0036172D01*
X0086892Y0036107D01*
X0087029Y0036038D01*
X0087164Y0035965D01*
X0087297Y0035889D01*
X0087428Y0035809D01*
X0087557Y0035727D01*
X0087684Y0035640D01*
X0087809Y0035551D01*
X0087931Y0035458D01*
X0088050Y0035362D01*
X0088168Y0035263D01*
X0088282Y0035162D01*
X0088394Y0035057D01*
X0088503Y0034949D01*
X0088609Y0034838D01*
X0088713Y0034725D01*
X0088813Y0034609D01*
X0088911Y0034491D01*
X0089005Y0034370D01*
X0089096Y0034247D01*
X0089184Y0034121D01*
X0089268Y0033993D01*
X0089350Y0033863D01*
X0089427Y0033731D01*
X0089502Y0033597D01*
X0089573Y0033461D01*
X0089640Y0033323D01*
X0089704Y0033183D01*
X0089764Y0033042D01*
X0089820Y0032900D01*
X0089873Y0032756D01*
X0089922Y0032610D01*
X0089967Y0032464D01*
X0090008Y0032316D01*
X0090045Y0032168D01*
X0090079Y0032018D01*
X0090109Y0031867D01*
X0090134Y0031716D01*
X0090156Y0031565D01*
X0090174Y0031412D01*
X0090188Y0031260D01*
X0090198Y0031107D01*
X0090204Y0030953D01*
X0090206Y0030800D01*
X0090204Y0030647D01*
X0090198Y0030493D01*
X0090188Y0030340D01*
X0090174Y0030188D01*
X0090156Y0030035D01*
X0090134Y0029884D01*
X0090109Y0029733D01*
X0090079Y0029582D01*
X0090045Y0029432D01*
X0090008Y0029284D01*
X0089967Y0029136D01*
X0089922Y0028990D01*
X0089873Y0028844D01*
X0089820Y0028700D01*
X0089764Y0028558D01*
X0089704Y0028417D01*
X0089640Y0028277D01*
X0089573Y0028139D01*
X0089502Y0028003D01*
X0089427Y0027869D01*
X0089350Y0027737D01*
X0089268Y0027607D01*
X0089184Y0027479D01*
X0089096Y0027353D01*
X0089005Y0027230D01*
X0088911Y0027109D01*
X0088813Y0026991D01*
X0088713Y0026875D01*
X0088609Y0026762D01*
X0088503Y0026651D01*
X0088394Y0026543D01*
X0088282Y0026438D01*
X0088168Y0026337D01*
X0088050Y0026238D01*
X0087931Y0026142D01*
X0087809Y0026049D01*
X0087684Y0025960D01*
X0087557Y0025873D01*
X0087428Y0025791D01*
X0087297Y0025711D01*
X0087164Y0025635D01*
X0087029Y0025562D01*
X0086892Y0025493D01*
X0086753Y0025428D01*
X0086613Y0025366D01*
X0086471Y0025308D01*
X0086328Y0025253D01*
X0086183Y0025202D01*
X0086037Y0025155D01*
X0085890Y0025112D01*
X0085742Y0025073D01*
X0085593Y0025037D01*
X0085443Y0025006D01*
X0085292Y0024978D01*
X0085141Y0024954D01*
X0084988Y0024934D01*
X0084836Y0024918D01*
X0084683Y0024906D01*
X0084530Y0024898D01*
X0084377Y0024894D01*
X0084223Y0024894D01*
X0084070Y0024898D01*
X0083917Y0024906D01*
X0083764Y0024918D01*
X0083612Y0024934D01*
X0083459Y0024954D01*
X0083308Y0024978D01*
X0083157Y0025006D01*
X0083007Y0025037D01*
X0082858Y0025073D01*
X0082710Y0025112D01*
X0082563Y0025155D01*
X0082417Y0025202D01*
X0082272Y0025253D01*
X0082129Y0025308D01*
X0081987Y0025366D01*
X0081847Y0025428D01*
X0081708Y0025493D01*
X0081571Y0025562D01*
X0081436Y0025635D01*
X0081303Y0025711D01*
X0081172Y0025791D01*
X0081043Y0025873D01*
X0080916Y0025960D01*
X0080791Y0026049D01*
X0080669Y0026142D01*
X0080550Y0026238D01*
X0080432Y0026337D01*
X0080318Y0026438D01*
X0080206Y0026543D01*
X0080097Y0026651D01*
X0079991Y0026762D01*
X0079887Y0026875D01*
X0079787Y0026991D01*
X0079689Y0027109D01*
X0079595Y0027230D01*
X0079504Y0027353D01*
X0079416Y0027479D01*
X0079332Y0027607D01*
X0079250Y0027737D01*
X0079173Y0027869D01*
X0079098Y0028003D01*
X0079027Y0028139D01*
X0078960Y0028277D01*
X0078896Y0028417D01*
X0078836Y0028558D01*
X0078780Y0028700D01*
X0078727Y0028844D01*
X0078678Y0028990D01*
X0078633Y0029136D01*
X0078592Y0029284D01*
X0078555Y0029432D01*
X0078521Y0029582D01*
X0078491Y0029733D01*
X0078466Y0029884D01*
X0078444Y0030035D01*
X0078426Y0030188D01*
X0078412Y0030340D01*
X0078402Y0030493D01*
X0078396Y0030647D01*
X0078394Y0030800D01*
X0308894Y0030800D02*
X0308896Y0030953D01*
X0308902Y0031107D01*
X0308912Y0031260D01*
X0308926Y0031412D01*
X0308944Y0031565D01*
X0308966Y0031716D01*
X0308991Y0031867D01*
X0309021Y0032018D01*
X0309055Y0032168D01*
X0309092Y0032316D01*
X0309133Y0032464D01*
X0309178Y0032610D01*
X0309227Y0032756D01*
X0309280Y0032900D01*
X0309336Y0033042D01*
X0309396Y0033183D01*
X0309460Y0033323D01*
X0309527Y0033461D01*
X0309598Y0033597D01*
X0309673Y0033731D01*
X0309750Y0033863D01*
X0309832Y0033993D01*
X0309916Y0034121D01*
X0310004Y0034247D01*
X0310095Y0034370D01*
X0310189Y0034491D01*
X0310287Y0034609D01*
X0310387Y0034725D01*
X0310491Y0034838D01*
X0310597Y0034949D01*
X0310706Y0035057D01*
X0310818Y0035162D01*
X0310932Y0035263D01*
X0311050Y0035362D01*
X0311169Y0035458D01*
X0311291Y0035551D01*
X0311416Y0035640D01*
X0311543Y0035727D01*
X0311672Y0035809D01*
X0311803Y0035889D01*
X0311936Y0035965D01*
X0312071Y0036038D01*
X0312208Y0036107D01*
X0312347Y0036172D01*
X0312487Y0036234D01*
X0312629Y0036292D01*
X0312772Y0036347D01*
X0312917Y0036398D01*
X0313063Y0036445D01*
X0313210Y0036488D01*
X0313358Y0036527D01*
X0313507Y0036563D01*
X0313657Y0036594D01*
X0313808Y0036622D01*
X0313959Y0036646D01*
X0314112Y0036666D01*
X0314264Y0036682D01*
X0314417Y0036694D01*
X0314570Y0036702D01*
X0314723Y0036706D01*
X0314877Y0036706D01*
X0315030Y0036702D01*
X0315183Y0036694D01*
X0315336Y0036682D01*
X0315488Y0036666D01*
X0315641Y0036646D01*
X0315792Y0036622D01*
X0315943Y0036594D01*
X0316093Y0036563D01*
X0316242Y0036527D01*
X0316390Y0036488D01*
X0316537Y0036445D01*
X0316683Y0036398D01*
X0316828Y0036347D01*
X0316971Y0036292D01*
X0317113Y0036234D01*
X0317253Y0036172D01*
X0317392Y0036107D01*
X0317529Y0036038D01*
X0317664Y0035965D01*
X0317797Y0035889D01*
X0317928Y0035809D01*
X0318057Y0035727D01*
X0318184Y0035640D01*
X0318309Y0035551D01*
X0318431Y0035458D01*
X0318550Y0035362D01*
X0318668Y0035263D01*
X0318782Y0035162D01*
X0318894Y0035057D01*
X0319003Y0034949D01*
X0319109Y0034838D01*
X0319213Y0034725D01*
X0319313Y0034609D01*
X0319411Y0034491D01*
X0319505Y0034370D01*
X0319596Y0034247D01*
X0319684Y0034121D01*
X0319768Y0033993D01*
X0319850Y0033863D01*
X0319927Y0033731D01*
X0320002Y0033597D01*
X0320073Y0033461D01*
X0320140Y0033323D01*
X0320204Y0033183D01*
X0320264Y0033042D01*
X0320320Y0032900D01*
X0320373Y0032756D01*
X0320422Y0032610D01*
X0320467Y0032464D01*
X0320508Y0032316D01*
X0320545Y0032168D01*
X0320579Y0032018D01*
X0320609Y0031867D01*
X0320634Y0031716D01*
X0320656Y0031565D01*
X0320674Y0031412D01*
X0320688Y0031260D01*
X0320698Y0031107D01*
X0320704Y0030953D01*
X0320706Y0030800D01*
X0320704Y0030647D01*
X0320698Y0030493D01*
X0320688Y0030340D01*
X0320674Y0030188D01*
X0320656Y0030035D01*
X0320634Y0029884D01*
X0320609Y0029733D01*
X0320579Y0029582D01*
X0320545Y0029432D01*
X0320508Y0029284D01*
X0320467Y0029136D01*
X0320422Y0028990D01*
X0320373Y0028844D01*
X0320320Y0028700D01*
X0320264Y0028558D01*
X0320204Y0028417D01*
X0320140Y0028277D01*
X0320073Y0028139D01*
X0320002Y0028003D01*
X0319927Y0027869D01*
X0319850Y0027737D01*
X0319768Y0027607D01*
X0319684Y0027479D01*
X0319596Y0027353D01*
X0319505Y0027230D01*
X0319411Y0027109D01*
X0319313Y0026991D01*
X0319213Y0026875D01*
X0319109Y0026762D01*
X0319003Y0026651D01*
X0318894Y0026543D01*
X0318782Y0026438D01*
X0318668Y0026337D01*
X0318550Y0026238D01*
X0318431Y0026142D01*
X0318309Y0026049D01*
X0318184Y0025960D01*
X0318057Y0025873D01*
X0317928Y0025791D01*
X0317797Y0025711D01*
X0317664Y0025635D01*
X0317529Y0025562D01*
X0317392Y0025493D01*
X0317253Y0025428D01*
X0317113Y0025366D01*
X0316971Y0025308D01*
X0316828Y0025253D01*
X0316683Y0025202D01*
X0316537Y0025155D01*
X0316390Y0025112D01*
X0316242Y0025073D01*
X0316093Y0025037D01*
X0315943Y0025006D01*
X0315792Y0024978D01*
X0315641Y0024954D01*
X0315488Y0024934D01*
X0315336Y0024918D01*
X0315183Y0024906D01*
X0315030Y0024898D01*
X0314877Y0024894D01*
X0314723Y0024894D01*
X0314570Y0024898D01*
X0314417Y0024906D01*
X0314264Y0024918D01*
X0314112Y0024934D01*
X0313959Y0024954D01*
X0313808Y0024978D01*
X0313657Y0025006D01*
X0313507Y0025037D01*
X0313358Y0025073D01*
X0313210Y0025112D01*
X0313063Y0025155D01*
X0312917Y0025202D01*
X0312772Y0025253D01*
X0312629Y0025308D01*
X0312487Y0025366D01*
X0312347Y0025428D01*
X0312208Y0025493D01*
X0312071Y0025562D01*
X0311936Y0025635D01*
X0311803Y0025711D01*
X0311672Y0025791D01*
X0311543Y0025873D01*
X0311416Y0025960D01*
X0311291Y0026049D01*
X0311169Y0026142D01*
X0311050Y0026238D01*
X0310932Y0026337D01*
X0310818Y0026438D01*
X0310706Y0026543D01*
X0310597Y0026651D01*
X0310491Y0026762D01*
X0310387Y0026875D01*
X0310287Y0026991D01*
X0310189Y0027109D01*
X0310095Y0027230D01*
X0310004Y0027353D01*
X0309916Y0027479D01*
X0309832Y0027607D01*
X0309750Y0027737D01*
X0309673Y0027869D01*
X0309598Y0028003D01*
X0309527Y0028139D01*
X0309460Y0028277D01*
X0309396Y0028417D01*
X0309336Y0028558D01*
X0309280Y0028700D01*
X0309227Y0028844D01*
X0309178Y0028990D01*
X0309133Y0029136D01*
X0309092Y0029284D01*
X0309055Y0029432D01*
X0309021Y0029582D01*
X0308991Y0029733D01*
X0308966Y0029884D01*
X0308944Y0030035D01*
X0308926Y0030188D01*
X0308912Y0030340D01*
X0308902Y0030493D01*
X0308896Y0030647D01*
X0308894Y0030800D01*
X0308894Y0189800D02*
X0308896Y0189953D01*
X0308902Y0190107D01*
X0308912Y0190260D01*
X0308926Y0190412D01*
X0308944Y0190565D01*
X0308966Y0190716D01*
X0308991Y0190867D01*
X0309021Y0191018D01*
X0309055Y0191168D01*
X0309092Y0191316D01*
X0309133Y0191464D01*
X0309178Y0191610D01*
X0309227Y0191756D01*
X0309280Y0191900D01*
X0309336Y0192042D01*
X0309396Y0192183D01*
X0309460Y0192323D01*
X0309527Y0192461D01*
X0309598Y0192597D01*
X0309673Y0192731D01*
X0309750Y0192863D01*
X0309832Y0192993D01*
X0309916Y0193121D01*
X0310004Y0193247D01*
X0310095Y0193370D01*
X0310189Y0193491D01*
X0310287Y0193609D01*
X0310387Y0193725D01*
X0310491Y0193838D01*
X0310597Y0193949D01*
X0310706Y0194057D01*
X0310818Y0194162D01*
X0310932Y0194263D01*
X0311050Y0194362D01*
X0311169Y0194458D01*
X0311291Y0194551D01*
X0311416Y0194640D01*
X0311543Y0194727D01*
X0311672Y0194809D01*
X0311803Y0194889D01*
X0311936Y0194965D01*
X0312071Y0195038D01*
X0312208Y0195107D01*
X0312347Y0195172D01*
X0312487Y0195234D01*
X0312629Y0195292D01*
X0312772Y0195347D01*
X0312917Y0195398D01*
X0313063Y0195445D01*
X0313210Y0195488D01*
X0313358Y0195527D01*
X0313507Y0195563D01*
X0313657Y0195594D01*
X0313808Y0195622D01*
X0313959Y0195646D01*
X0314112Y0195666D01*
X0314264Y0195682D01*
X0314417Y0195694D01*
X0314570Y0195702D01*
X0314723Y0195706D01*
X0314877Y0195706D01*
X0315030Y0195702D01*
X0315183Y0195694D01*
X0315336Y0195682D01*
X0315488Y0195666D01*
X0315641Y0195646D01*
X0315792Y0195622D01*
X0315943Y0195594D01*
X0316093Y0195563D01*
X0316242Y0195527D01*
X0316390Y0195488D01*
X0316537Y0195445D01*
X0316683Y0195398D01*
X0316828Y0195347D01*
X0316971Y0195292D01*
X0317113Y0195234D01*
X0317253Y0195172D01*
X0317392Y0195107D01*
X0317529Y0195038D01*
X0317664Y0194965D01*
X0317797Y0194889D01*
X0317928Y0194809D01*
X0318057Y0194727D01*
X0318184Y0194640D01*
X0318309Y0194551D01*
X0318431Y0194458D01*
X0318550Y0194362D01*
X0318668Y0194263D01*
X0318782Y0194162D01*
X0318894Y0194057D01*
X0319003Y0193949D01*
X0319109Y0193838D01*
X0319213Y0193725D01*
X0319313Y0193609D01*
X0319411Y0193491D01*
X0319505Y0193370D01*
X0319596Y0193247D01*
X0319684Y0193121D01*
X0319768Y0192993D01*
X0319850Y0192863D01*
X0319927Y0192731D01*
X0320002Y0192597D01*
X0320073Y0192461D01*
X0320140Y0192323D01*
X0320204Y0192183D01*
X0320264Y0192042D01*
X0320320Y0191900D01*
X0320373Y0191756D01*
X0320422Y0191610D01*
X0320467Y0191464D01*
X0320508Y0191316D01*
X0320545Y0191168D01*
X0320579Y0191018D01*
X0320609Y0190867D01*
X0320634Y0190716D01*
X0320656Y0190565D01*
X0320674Y0190412D01*
X0320688Y0190260D01*
X0320698Y0190107D01*
X0320704Y0189953D01*
X0320706Y0189800D01*
X0320704Y0189647D01*
X0320698Y0189493D01*
X0320688Y0189340D01*
X0320674Y0189188D01*
X0320656Y0189035D01*
X0320634Y0188884D01*
X0320609Y0188733D01*
X0320579Y0188582D01*
X0320545Y0188432D01*
X0320508Y0188284D01*
X0320467Y0188136D01*
X0320422Y0187990D01*
X0320373Y0187844D01*
X0320320Y0187700D01*
X0320264Y0187558D01*
X0320204Y0187417D01*
X0320140Y0187277D01*
X0320073Y0187139D01*
X0320002Y0187003D01*
X0319927Y0186869D01*
X0319850Y0186737D01*
X0319768Y0186607D01*
X0319684Y0186479D01*
X0319596Y0186353D01*
X0319505Y0186230D01*
X0319411Y0186109D01*
X0319313Y0185991D01*
X0319213Y0185875D01*
X0319109Y0185762D01*
X0319003Y0185651D01*
X0318894Y0185543D01*
X0318782Y0185438D01*
X0318668Y0185337D01*
X0318550Y0185238D01*
X0318431Y0185142D01*
X0318309Y0185049D01*
X0318184Y0184960D01*
X0318057Y0184873D01*
X0317928Y0184791D01*
X0317797Y0184711D01*
X0317664Y0184635D01*
X0317529Y0184562D01*
X0317392Y0184493D01*
X0317253Y0184428D01*
X0317113Y0184366D01*
X0316971Y0184308D01*
X0316828Y0184253D01*
X0316683Y0184202D01*
X0316537Y0184155D01*
X0316390Y0184112D01*
X0316242Y0184073D01*
X0316093Y0184037D01*
X0315943Y0184006D01*
X0315792Y0183978D01*
X0315641Y0183954D01*
X0315488Y0183934D01*
X0315336Y0183918D01*
X0315183Y0183906D01*
X0315030Y0183898D01*
X0314877Y0183894D01*
X0314723Y0183894D01*
X0314570Y0183898D01*
X0314417Y0183906D01*
X0314264Y0183918D01*
X0314112Y0183934D01*
X0313959Y0183954D01*
X0313808Y0183978D01*
X0313657Y0184006D01*
X0313507Y0184037D01*
X0313358Y0184073D01*
X0313210Y0184112D01*
X0313063Y0184155D01*
X0312917Y0184202D01*
X0312772Y0184253D01*
X0312629Y0184308D01*
X0312487Y0184366D01*
X0312347Y0184428D01*
X0312208Y0184493D01*
X0312071Y0184562D01*
X0311936Y0184635D01*
X0311803Y0184711D01*
X0311672Y0184791D01*
X0311543Y0184873D01*
X0311416Y0184960D01*
X0311291Y0185049D01*
X0311169Y0185142D01*
X0311050Y0185238D01*
X0310932Y0185337D01*
X0310818Y0185438D01*
X0310706Y0185543D01*
X0310597Y0185651D01*
X0310491Y0185762D01*
X0310387Y0185875D01*
X0310287Y0185991D01*
X0310189Y0186109D01*
X0310095Y0186230D01*
X0310004Y0186353D01*
X0309916Y0186479D01*
X0309832Y0186607D01*
X0309750Y0186737D01*
X0309673Y0186869D01*
X0309598Y0187003D01*
X0309527Y0187139D01*
X0309460Y0187277D01*
X0309396Y0187417D01*
X0309336Y0187558D01*
X0309280Y0187700D01*
X0309227Y0187844D01*
X0309178Y0187990D01*
X0309133Y0188136D01*
X0309092Y0188284D01*
X0309055Y0188432D01*
X0309021Y0188582D01*
X0308991Y0188733D01*
X0308966Y0188884D01*
X0308944Y0189035D01*
X0308926Y0189188D01*
X0308912Y0189340D01*
X0308902Y0189493D01*
X0308896Y0189647D01*
X0308894Y0189800D01*
X0078394Y0189800D02*
X0078396Y0189953D01*
X0078402Y0190107D01*
X0078412Y0190260D01*
X0078426Y0190412D01*
X0078444Y0190565D01*
X0078466Y0190716D01*
X0078491Y0190867D01*
X0078521Y0191018D01*
X0078555Y0191168D01*
X0078592Y0191316D01*
X0078633Y0191464D01*
X0078678Y0191610D01*
X0078727Y0191756D01*
X0078780Y0191900D01*
X0078836Y0192042D01*
X0078896Y0192183D01*
X0078960Y0192323D01*
X0079027Y0192461D01*
X0079098Y0192597D01*
X0079173Y0192731D01*
X0079250Y0192863D01*
X0079332Y0192993D01*
X0079416Y0193121D01*
X0079504Y0193247D01*
X0079595Y0193370D01*
X0079689Y0193491D01*
X0079787Y0193609D01*
X0079887Y0193725D01*
X0079991Y0193838D01*
X0080097Y0193949D01*
X0080206Y0194057D01*
X0080318Y0194162D01*
X0080432Y0194263D01*
X0080550Y0194362D01*
X0080669Y0194458D01*
X0080791Y0194551D01*
X0080916Y0194640D01*
X0081043Y0194727D01*
X0081172Y0194809D01*
X0081303Y0194889D01*
X0081436Y0194965D01*
X0081571Y0195038D01*
X0081708Y0195107D01*
X0081847Y0195172D01*
X0081987Y0195234D01*
X0082129Y0195292D01*
X0082272Y0195347D01*
X0082417Y0195398D01*
X0082563Y0195445D01*
X0082710Y0195488D01*
X0082858Y0195527D01*
X0083007Y0195563D01*
X0083157Y0195594D01*
X0083308Y0195622D01*
X0083459Y0195646D01*
X0083612Y0195666D01*
X0083764Y0195682D01*
X0083917Y0195694D01*
X0084070Y0195702D01*
X0084223Y0195706D01*
X0084377Y0195706D01*
X0084530Y0195702D01*
X0084683Y0195694D01*
X0084836Y0195682D01*
X0084988Y0195666D01*
X0085141Y0195646D01*
X0085292Y0195622D01*
X0085443Y0195594D01*
X0085593Y0195563D01*
X0085742Y0195527D01*
X0085890Y0195488D01*
X0086037Y0195445D01*
X0086183Y0195398D01*
X0086328Y0195347D01*
X0086471Y0195292D01*
X0086613Y0195234D01*
X0086753Y0195172D01*
X0086892Y0195107D01*
X0087029Y0195038D01*
X0087164Y0194965D01*
X0087297Y0194889D01*
X0087428Y0194809D01*
X0087557Y0194727D01*
X0087684Y0194640D01*
X0087809Y0194551D01*
X0087931Y0194458D01*
X0088050Y0194362D01*
X0088168Y0194263D01*
X0088282Y0194162D01*
X0088394Y0194057D01*
X0088503Y0193949D01*
X0088609Y0193838D01*
X0088713Y0193725D01*
X0088813Y0193609D01*
X0088911Y0193491D01*
X0089005Y0193370D01*
X0089096Y0193247D01*
X0089184Y0193121D01*
X0089268Y0192993D01*
X0089350Y0192863D01*
X0089427Y0192731D01*
X0089502Y0192597D01*
X0089573Y0192461D01*
X0089640Y0192323D01*
X0089704Y0192183D01*
X0089764Y0192042D01*
X0089820Y0191900D01*
X0089873Y0191756D01*
X0089922Y0191610D01*
X0089967Y0191464D01*
X0090008Y0191316D01*
X0090045Y0191168D01*
X0090079Y0191018D01*
X0090109Y0190867D01*
X0090134Y0190716D01*
X0090156Y0190565D01*
X0090174Y0190412D01*
X0090188Y0190260D01*
X0090198Y0190107D01*
X0090204Y0189953D01*
X0090206Y0189800D01*
X0090204Y0189647D01*
X0090198Y0189493D01*
X0090188Y0189340D01*
X0090174Y0189188D01*
X0090156Y0189035D01*
X0090134Y0188884D01*
X0090109Y0188733D01*
X0090079Y0188582D01*
X0090045Y0188432D01*
X0090008Y0188284D01*
X0089967Y0188136D01*
X0089922Y0187990D01*
X0089873Y0187844D01*
X0089820Y0187700D01*
X0089764Y0187558D01*
X0089704Y0187417D01*
X0089640Y0187277D01*
X0089573Y0187139D01*
X0089502Y0187003D01*
X0089427Y0186869D01*
X0089350Y0186737D01*
X0089268Y0186607D01*
X0089184Y0186479D01*
X0089096Y0186353D01*
X0089005Y0186230D01*
X0088911Y0186109D01*
X0088813Y0185991D01*
X0088713Y0185875D01*
X0088609Y0185762D01*
X0088503Y0185651D01*
X0088394Y0185543D01*
X0088282Y0185438D01*
X0088168Y0185337D01*
X0088050Y0185238D01*
X0087931Y0185142D01*
X0087809Y0185049D01*
X0087684Y0184960D01*
X0087557Y0184873D01*
X0087428Y0184791D01*
X0087297Y0184711D01*
X0087164Y0184635D01*
X0087029Y0184562D01*
X0086892Y0184493D01*
X0086753Y0184428D01*
X0086613Y0184366D01*
X0086471Y0184308D01*
X0086328Y0184253D01*
X0086183Y0184202D01*
X0086037Y0184155D01*
X0085890Y0184112D01*
X0085742Y0184073D01*
X0085593Y0184037D01*
X0085443Y0184006D01*
X0085292Y0183978D01*
X0085141Y0183954D01*
X0084988Y0183934D01*
X0084836Y0183918D01*
X0084683Y0183906D01*
X0084530Y0183898D01*
X0084377Y0183894D01*
X0084223Y0183894D01*
X0084070Y0183898D01*
X0083917Y0183906D01*
X0083764Y0183918D01*
X0083612Y0183934D01*
X0083459Y0183954D01*
X0083308Y0183978D01*
X0083157Y0184006D01*
X0083007Y0184037D01*
X0082858Y0184073D01*
X0082710Y0184112D01*
X0082563Y0184155D01*
X0082417Y0184202D01*
X0082272Y0184253D01*
X0082129Y0184308D01*
X0081987Y0184366D01*
X0081847Y0184428D01*
X0081708Y0184493D01*
X0081571Y0184562D01*
X0081436Y0184635D01*
X0081303Y0184711D01*
X0081172Y0184791D01*
X0081043Y0184873D01*
X0080916Y0184960D01*
X0080791Y0185049D01*
X0080669Y0185142D01*
X0080550Y0185238D01*
X0080432Y0185337D01*
X0080318Y0185438D01*
X0080206Y0185543D01*
X0080097Y0185651D01*
X0079991Y0185762D01*
X0079887Y0185875D01*
X0079787Y0185991D01*
X0079689Y0186109D01*
X0079595Y0186230D01*
X0079504Y0186353D01*
X0079416Y0186479D01*
X0079332Y0186607D01*
X0079250Y0186737D01*
X0079173Y0186869D01*
X0079098Y0187003D01*
X0079027Y0187139D01*
X0078960Y0187277D01*
X0078896Y0187417D01*
X0078836Y0187558D01*
X0078780Y0187700D01*
X0078727Y0187844D01*
X0078678Y0187990D01*
X0078633Y0188136D01*
X0078592Y0188284D01*
X0078555Y0188432D01*
X0078521Y0188582D01*
X0078491Y0188733D01*
X0078466Y0188884D01*
X0078444Y0189035D01*
X0078426Y0189188D01*
X0078412Y0189340D01*
X0078402Y0189493D01*
X0078396Y0189647D01*
X0078394Y0189800D01*
D12*
X0011363Y0041800D02*
X0240300Y0041800D01*
X0240300Y0177548D01*
X0011363Y0177548D01*
X0011363Y0041800D01*
X0017466Y0053611D02*
X0017468Y0053769D01*
X0017474Y0053927D01*
X0017484Y0054085D01*
X0017498Y0054243D01*
X0017516Y0054400D01*
X0017537Y0054557D01*
X0017563Y0054713D01*
X0017593Y0054869D01*
X0017626Y0055024D01*
X0017664Y0055177D01*
X0017705Y0055330D01*
X0017750Y0055482D01*
X0017799Y0055633D01*
X0017852Y0055782D01*
X0017908Y0055930D01*
X0017968Y0056076D01*
X0018032Y0056221D01*
X0018100Y0056364D01*
X0018171Y0056506D01*
X0018245Y0056646D01*
X0018323Y0056783D01*
X0018405Y0056919D01*
X0018489Y0057053D01*
X0018578Y0057184D01*
X0018669Y0057313D01*
X0018764Y0057440D01*
X0018861Y0057565D01*
X0018962Y0057687D01*
X0019066Y0057806D01*
X0019173Y0057923D01*
X0019283Y0058037D01*
X0019396Y0058148D01*
X0019511Y0058257D01*
X0019629Y0058362D01*
X0019750Y0058464D01*
X0019873Y0058564D01*
X0019999Y0058660D01*
X0020127Y0058753D01*
X0020257Y0058843D01*
X0020390Y0058929D01*
X0020525Y0059013D01*
X0020661Y0059092D01*
X0020800Y0059169D01*
X0020941Y0059241D01*
X0021083Y0059311D01*
X0021227Y0059376D01*
X0021373Y0059438D01*
X0021520Y0059496D01*
X0021669Y0059551D01*
X0021819Y0059602D01*
X0021970Y0059649D01*
X0022122Y0059692D01*
X0022275Y0059731D01*
X0022430Y0059767D01*
X0022585Y0059798D01*
X0022741Y0059826D01*
X0022897Y0059850D01*
X0023054Y0059870D01*
X0023212Y0059886D01*
X0023369Y0059898D01*
X0023528Y0059906D01*
X0023686Y0059910D01*
X0023844Y0059910D01*
X0024002Y0059906D01*
X0024161Y0059898D01*
X0024318Y0059886D01*
X0024476Y0059870D01*
X0024633Y0059850D01*
X0024789Y0059826D01*
X0024945Y0059798D01*
X0025100Y0059767D01*
X0025255Y0059731D01*
X0025408Y0059692D01*
X0025560Y0059649D01*
X0025711Y0059602D01*
X0025861Y0059551D01*
X0026010Y0059496D01*
X0026157Y0059438D01*
X0026303Y0059376D01*
X0026447Y0059311D01*
X0026589Y0059241D01*
X0026730Y0059169D01*
X0026869Y0059092D01*
X0027005Y0059013D01*
X0027140Y0058929D01*
X0027273Y0058843D01*
X0027403Y0058753D01*
X0027531Y0058660D01*
X0027657Y0058564D01*
X0027780Y0058464D01*
X0027901Y0058362D01*
X0028019Y0058257D01*
X0028134Y0058148D01*
X0028247Y0058037D01*
X0028357Y0057923D01*
X0028464Y0057806D01*
X0028568Y0057687D01*
X0028669Y0057565D01*
X0028766Y0057440D01*
X0028861Y0057313D01*
X0028952Y0057184D01*
X0029041Y0057053D01*
X0029125Y0056919D01*
X0029207Y0056783D01*
X0029285Y0056646D01*
X0029359Y0056506D01*
X0029430Y0056364D01*
X0029498Y0056221D01*
X0029562Y0056076D01*
X0029622Y0055930D01*
X0029678Y0055782D01*
X0029731Y0055633D01*
X0029780Y0055482D01*
X0029825Y0055330D01*
X0029866Y0055177D01*
X0029904Y0055024D01*
X0029937Y0054869D01*
X0029967Y0054713D01*
X0029993Y0054557D01*
X0030014Y0054400D01*
X0030032Y0054243D01*
X0030046Y0054085D01*
X0030056Y0053927D01*
X0030062Y0053769D01*
X0030064Y0053611D01*
X0030062Y0053453D01*
X0030056Y0053295D01*
X0030046Y0053137D01*
X0030032Y0052979D01*
X0030014Y0052822D01*
X0029993Y0052665D01*
X0029967Y0052509D01*
X0029937Y0052353D01*
X0029904Y0052198D01*
X0029866Y0052045D01*
X0029825Y0051892D01*
X0029780Y0051740D01*
X0029731Y0051589D01*
X0029678Y0051440D01*
X0029622Y0051292D01*
X0029562Y0051146D01*
X0029498Y0051001D01*
X0029430Y0050858D01*
X0029359Y0050716D01*
X0029285Y0050576D01*
X0029207Y0050439D01*
X0029125Y0050303D01*
X0029041Y0050169D01*
X0028952Y0050038D01*
X0028861Y0049909D01*
X0028766Y0049782D01*
X0028669Y0049657D01*
X0028568Y0049535D01*
X0028464Y0049416D01*
X0028357Y0049299D01*
X0028247Y0049185D01*
X0028134Y0049074D01*
X0028019Y0048965D01*
X0027901Y0048860D01*
X0027780Y0048758D01*
X0027657Y0048658D01*
X0027531Y0048562D01*
X0027403Y0048469D01*
X0027273Y0048379D01*
X0027140Y0048293D01*
X0027005Y0048209D01*
X0026869Y0048130D01*
X0026730Y0048053D01*
X0026589Y0047981D01*
X0026447Y0047911D01*
X0026303Y0047846D01*
X0026157Y0047784D01*
X0026010Y0047726D01*
X0025861Y0047671D01*
X0025711Y0047620D01*
X0025560Y0047573D01*
X0025408Y0047530D01*
X0025255Y0047491D01*
X0025100Y0047455D01*
X0024945Y0047424D01*
X0024789Y0047396D01*
X0024633Y0047372D01*
X0024476Y0047352D01*
X0024318Y0047336D01*
X0024161Y0047324D01*
X0024002Y0047316D01*
X0023844Y0047312D01*
X0023686Y0047312D01*
X0023528Y0047316D01*
X0023369Y0047324D01*
X0023212Y0047336D01*
X0023054Y0047352D01*
X0022897Y0047372D01*
X0022741Y0047396D01*
X0022585Y0047424D01*
X0022430Y0047455D01*
X0022275Y0047491D01*
X0022122Y0047530D01*
X0021970Y0047573D01*
X0021819Y0047620D01*
X0021669Y0047671D01*
X0021520Y0047726D01*
X0021373Y0047784D01*
X0021227Y0047846D01*
X0021083Y0047911D01*
X0020941Y0047981D01*
X0020800Y0048053D01*
X0020661Y0048130D01*
X0020525Y0048209D01*
X0020390Y0048293D01*
X0020257Y0048379D01*
X0020127Y0048469D01*
X0019999Y0048562D01*
X0019873Y0048658D01*
X0019750Y0048758D01*
X0019629Y0048860D01*
X0019511Y0048965D01*
X0019396Y0049074D01*
X0019283Y0049185D01*
X0019173Y0049299D01*
X0019066Y0049416D01*
X0018962Y0049535D01*
X0018861Y0049657D01*
X0018764Y0049782D01*
X0018669Y0049909D01*
X0018578Y0050038D01*
X0018489Y0050169D01*
X0018405Y0050303D01*
X0018323Y0050439D01*
X0018245Y0050576D01*
X0018171Y0050716D01*
X0018100Y0050858D01*
X0018032Y0051001D01*
X0017968Y0051146D01*
X0017908Y0051292D01*
X0017852Y0051440D01*
X0017799Y0051589D01*
X0017750Y0051740D01*
X0017705Y0051892D01*
X0017664Y0052045D01*
X0017626Y0052198D01*
X0017593Y0052353D01*
X0017563Y0052509D01*
X0017537Y0052665D01*
X0017516Y0052822D01*
X0017498Y0052979D01*
X0017484Y0053137D01*
X0017474Y0053295D01*
X0017468Y0053453D01*
X0017466Y0053611D01*
X0030871Y0043060D02*
X0218824Y0043060D01*
X0218824Y0176288D01*
X0030871Y0176288D01*
X0030871Y0043060D01*
X0033430Y0045934D02*
X0033430Y0173414D01*
X0205950Y0173414D01*
X0205950Y0045934D01*
X0033430Y0045934D01*
X0206280Y0071150D02*
X0218666Y0071150D01*
X0222190Y0053611D02*
X0222192Y0053769D01*
X0222198Y0053927D01*
X0222208Y0054085D01*
X0222222Y0054243D01*
X0222240Y0054400D01*
X0222261Y0054557D01*
X0222287Y0054713D01*
X0222317Y0054869D01*
X0222350Y0055024D01*
X0222388Y0055177D01*
X0222429Y0055330D01*
X0222474Y0055482D01*
X0222523Y0055633D01*
X0222576Y0055782D01*
X0222632Y0055930D01*
X0222692Y0056076D01*
X0222756Y0056221D01*
X0222824Y0056364D01*
X0222895Y0056506D01*
X0222969Y0056646D01*
X0223047Y0056783D01*
X0223129Y0056919D01*
X0223213Y0057053D01*
X0223302Y0057184D01*
X0223393Y0057313D01*
X0223488Y0057440D01*
X0223585Y0057565D01*
X0223686Y0057687D01*
X0223790Y0057806D01*
X0223897Y0057923D01*
X0224007Y0058037D01*
X0224120Y0058148D01*
X0224235Y0058257D01*
X0224353Y0058362D01*
X0224474Y0058464D01*
X0224597Y0058564D01*
X0224723Y0058660D01*
X0224851Y0058753D01*
X0224981Y0058843D01*
X0225114Y0058929D01*
X0225249Y0059013D01*
X0225385Y0059092D01*
X0225524Y0059169D01*
X0225665Y0059241D01*
X0225807Y0059311D01*
X0225951Y0059376D01*
X0226097Y0059438D01*
X0226244Y0059496D01*
X0226393Y0059551D01*
X0226543Y0059602D01*
X0226694Y0059649D01*
X0226846Y0059692D01*
X0226999Y0059731D01*
X0227154Y0059767D01*
X0227309Y0059798D01*
X0227465Y0059826D01*
X0227621Y0059850D01*
X0227778Y0059870D01*
X0227936Y0059886D01*
X0228093Y0059898D01*
X0228252Y0059906D01*
X0228410Y0059910D01*
X0228568Y0059910D01*
X0228726Y0059906D01*
X0228885Y0059898D01*
X0229042Y0059886D01*
X0229200Y0059870D01*
X0229357Y0059850D01*
X0229513Y0059826D01*
X0229669Y0059798D01*
X0229824Y0059767D01*
X0229979Y0059731D01*
X0230132Y0059692D01*
X0230284Y0059649D01*
X0230435Y0059602D01*
X0230585Y0059551D01*
X0230734Y0059496D01*
X0230881Y0059438D01*
X0231027Y0059376D01*
X0231171Y0059311D01*
X0231313Y0059241D01*
X0231454Y0059169D01*
X0231593Y0059092D01*
X0231729Y0059013D01*
X0231864Y0058929D01*
X0231997Y0058843D01*
X0232127Y0058753D01*
X0232255Y0058660D01*
X0232381Y0058564D01*
X0232504Y0058464D01*
X0232625Y0058362D01*
X0232743Y0058257D01*
X0232858Y0058148D01*
X0232971Y0058037D01*
X0233081Y0057923D01*
X0233188Y0057806D01*
X0233292Y0057687D01*
X0233393Y0057565D01*
X0233490Y0057440D01*
X0233585Y0057313D01*
X0233676Y0057184D01*
X0233765Y0057053D01*
X0233849Y0056919D01*
X0233931Y0056783D01*
X0234009Y0056646D01*
X0234083Y0056506D01*
X0234154Y0056364D01*
X0234222Y0056221D01*
X0234286Y0056076D01*
X0234346Y0055930D01*
X0234402Y0055782D01*
X0234455Y0055633D01*
X0234504Y0055482D01*
X0234549Y0055330D01*
X0234590Y0055177D01*
X0234628Y0055024D01*
X0234661Y0054869D01*
X0234691Y0054713D01*
X0234717Y0054557D01*
X0234738Y0054400D01*
X0234756Y0054243D01*
X0234770Y0054085D01*
X0234780Y0053927D01*
X0234786Y0053769D01*
X0234788Y0053611D01*
X0234786Y0053453D01*
X0234780Y0053295D01*
X0234770Y0053137D01*
X0234756Y0052979D01*
X0234738Y0052822D01*
X0234717Y0052665D01*
X0234691Y0052509D01*
X0234661Y0052353D01*
X0234628Y0052198D01*
X0234590Y0052045D01*
X0234549Y0051892D01*
X0234504Y0051740D01*
X0234455Y0051589D01*
X0234402Y0051440D01*
X0234346Y0051292D01*
X0234286Y0051146D01*
X0234222Y0051001D01*
X0234154Y0050858D01*
X0234083Y0050716D01*
X0234009Y0050576D01*
X0233931Y0050439D01*
X0233849Y0050303D01*
X0233765Y0050169D01*
X0233676Y0050038D01*
X0233585Y0049909D01*
X0233490Y0049782D01*
X0233393Y0049657D01*
X0233292Y0049535D01*
X0233188Y0049416D01*
X0233081Y0049299D01*
X0232971Y0049185D01*
X0232858Y0049074D01*
X0232743Y0048965D01*
X0232625Y0048860D01*
X0232504Y0048758D01*
X0232381Y0048658D01*
X0232255Y0048562D01*
X0232127Y0048469D01*
X0231997Y0048379D01*
X0231864Y0048293D01*
X0231729Y0048209D01*
X0231593Y0048130D01*
X0231454Y0048053D01*
X0231313Y0047981D01*
X0231171Y0047911D01*
X0231027Y0047846D01*
X0230881Y0047784D01*
X0230734Y0047726D01*
X0230585Y0047671D01*
X0230435Y0047620D01*
X0230284Y0047573D01*
X0230132Y0047530D01*
X0229979Y0047491D01*
X0229824Y0047455D01*
X0229669Y0047424D01*
X0229513Y0047396D01*
X0229357Y0047372D01*
X0229200Y0047352D01*
X0229042Y0047336D01*
X0228885Y0047324D01*
X0228726Y0047316D01*
X0228568Y0047312D01*
X0228410Y0047312D01*
X0228252Y0047316D01*
X0228093Y0047324D01*
X0227936Y0047336D01*
X0227778Y0047352D01*
X0227621Y0047372D01*
X0227465Y0047396D01*
X0227309Y0047424D01*
X0227154Y0047455D01*
X0226999Y0047491D01*
X0226846Y0047530D01*
X0226694Y0047573D01*
X0226543Y0047620D01*
X0226393Y0047671D01*
X0226244Y0047726D01*
X0226097Y0047784D01*
X0225951Y0047846D01*
X0225807Y0047911D01*
X0225665Y0047981D01*
X0225524Y0048053D01*
X0225385Y0048130D01*
X0225249Y0048209D01*
X0225114Y0048293D01*
X0224981Y0048379D01*
X0224851Y0048469D01*
X0224723Y0048562D01*
X0224597Y0048658D01*
X0224474Y0048758D01*
X0224353Y0048860D01*
X0224235Y0048965D01*
X0224120Y0049074D01*
X0224007Y0049185D01*
X0223897Y0049299D01*
X0223790Y0049416D01*
X0223686Y0049535D01*
X0223585Y0049657D01*
X0223488Y0049782D01*
X0223393Y0049909D01*
X0223302Y0050038D01*
X0223213Y0050169D01*
X0223129Y0050303D01*
X0223047Y0050439D01*
X0222969Y0050576D01*
X0222895Y0050716D01*
X0222824Y0050858D01*
X0222756Y0051001D01*
X0222692Y0051146D01*
X0222632Y0051292D01*
X0222576Y0051440D01*
X0222523Y0051589D01*
X0222474Y0051740D01*
X0222429Y0051892D01*
X0222388Y0052045D01*
X0222350Y0052198D01*
X0222317Y0052353D01*
X0222287Y0052509D01*
X0222261Y0052665D01*
X0222240Y0052822D01*
X0222222Y0052979D01*
X0222208Y0053137D01*
X0222198Y0053295D01*
X0222192Y0053453D01*
X0222190Y0053611D01*
X0218666Y0152056D02*
X0206280Y0152056D01*
X0222190Y0165816D02*
X0222192Y0165974D01*
X0222198Y0166132D01*
X0222208Y0166290D01*
X0222222Y0166448D01*
X0222240Y0166605D01*
X0222261Y0166762D01*
X0222287Y0166918D01*
X0222317Y0167074D01*
X0222350Y0167229D01*
X0222388Y0167382D01*
X0222429Y0167535D01*
X0222474Y0167687D01*
X0222523Y0167838D01*
X0222576Y0167987D01*
X0222632Y0168135D01*
X0222692Y0168281D01*
X0222756Y0168426D01*
X0222824Y0168569D01*
X0222895Y0168711D01*
X0222969Y0168851D01*
X0223047Y0168988D01*
X0223129Y0169124D01*
X0223213Y0169258D01*
X0223302Y0169389D01*
X0223393Y0169518D01*
X0223488Y0169645D01*
X0223585Y0169770D01*
X0223686Y0169892D01*
X0223790Y0170011D01*
X0223897Y0170128D01*
X0224007Y0170242D01*
X0224120Y0170353D01*
X0224235Y0170462D01*
X0224353Y0170567D01*
X0224474Y0170669D01*
X0224597Y0170769D01*
X0224723Y0170865D01*
X0224851Y0170958D01*
X0224981Y0171048D01*
X0225114Y0171134D01*
X0225249Y0171218D01*
X0225385Y0171297D01*
X0225524Y0171374D01*
X0225665Y0171446D01*
X0225807Y0171516D01*
X0225951Y0171581D01*
X0226097Y0171643D01*
X0226244Y0171701D01*
X0226393Y0171756D01*
X0226543Y0171807D01*
X0226694Y0171854D01*
X0226846Y0171897D01*
X0226999Y0171936D01*
X0227154Y0171972D01*
X0227309Y0172003D01*
X0227465Y0172031D01*
X0227621Y0172055D01*
X0227778Y0172075D01*
X0227936Y0172091D01*
X0228093Y0172103D01*
X0228252Y0172111D01*
X0228410Y0172115D01*
X0228568Y0172115D01*
X0228726Y0172111D01*
X0228885Y0172103D01*
X0229042Y0172091D01*
X0229200Y0172075D01*
X0229357Y0172055D01*
X0229513Y0172031D01*
X0229669Y0172003D01*
X0229824Y0171972D01*
X0229979Y0171936D01*
X0230132Y0171897D01*
X0230284Y0171854D01*
X0230435Y0171807D01*
X0230585Y0171756D01*
X0230734Y0171701D01*
X0230881Y0171643D01*
X0231027Y0171581D01*
X0231171Y0171516D01*
X0231313Y0171446D01*
X0231454Y0171374D01*
X0231593Y0171297D01*
X0231729Y0171218D01*
X0231864Y0171134D01*
X0231997Y0171048D01*
X0232127Y0170958D01*
X0232255Y0170865D01*
X0232381Y0170769D01*
X0232504Y0170669D01*
X0232625Y0170567D01*
X0232743Y0170462D01*
X0232858Y0170353D01*
X0232971Y0170242D01*
X0233081Y0170128D01*
X0233188Y0170011D01*
X0233292Y0169892D01*
X0233393Y0169770D01*
X0233490Y0169645D01*
X0233585Y0169518D01*
X0233676Y0169389D01*
X0233765Y0169258D01*
X0233849Y0169124D01*
X0233931Y0168988D01*
X0234009Y0168851D01*
X0234083Y0168711D01*
X0234154Y0168569D01*
X0234222Y0168426D01*
X0234286Y0168281D01*
X0234346Y0168135D01*
X0234402Y0167987D01*
X0234455Y0167838D01*
X0234504Y0167687D01*
X0234549Y0167535D01*
X0234590Y0167382D01*
X0234628Y0167229D01*
X0234661Y0167074D01*
X0234691Y0166918D01*
X0234717Y0166762D01*
X0234738Y0166605D01*
X0234756Y0166448D01*
X0234770Y0166290D01*
X0234780Y0166132D01*
X0234786Y0165974D01*
X0234788Y0165816D01*
X0234786Y0165658D01*
X0234780Y0165500D01*
X0234770Y0165342D01*
X0234756Y0165184D01*
X0234738Y0165027D01*
X0234717Y0164870D01*
X0234691Y0164714D01*
X0234661Y0164558D01*
X0234628Y0164403D01*
X0234590Y0164250D01*
X0234549Y0164097D01*
X0234504Y0163945D01*
X0234455Y0163794D01*
X0234402Y0163645D01*
X0234346Y0163497D01*
X0234286Y0163351D01*
X0234222Y0163206D01*
X0234154Y0163063D01*
X0234083Y0162921D01*
X0234009Y0162781D01*
X0233931Y0162644D01*
X0233849Y0162508D01*
X0233765Y0162374D01*
X0233676Y0162243D01*
X0233585Y0162114D01*
X0233490Y0161987D01*
X0233393Y0161862D01*
X0233292Y0161740D01*
X0233188Y0161621D01*
X0233081Y0161504D01*
X0232971Y0161390D01*
X0232858Y0161279D01*
X0232743Y0161170D01*
X0232625Y0161065D01*
X0232504Y0160963D01*
X0232381Y0160863D01*
X0232255Y0160767D01*
X0232127Y0160674D01*
X0231997Y0160584D01*
X0231864Y0160498D01*
X0231729Y0160414D01*
X0231593Y0160335D01*
X0231454Y0160258D01*
X0231313Y0160186D01*
X0231171Y0160116D01*
X0231027Y0160051D01*
X0230881Y0159989D01*
X0230734Y0159931D01*
X0230585Y0159876D01*
X0230435Y0159825D01*
X0230284Y0159778D01*
X0230132Y0159735D01*
X0229979Y0159696D01*
X0229824Y0159660D01*
X0229669Y0159629D01*
X0229513Y0159601D01*
X0229357Y0159577D01*
X0229200Y0159557D01*
X0229042Y0159541D01*
X0228885Y0159529D01*
X0228726Y0159521D01*
X0228568Y0159517D01*
X0228410Y0159517D01*
X0228252Y0159521D01*
X0228093Y0159529D01*
X0227936Y0159541D01*
X0227778Y0159557D01*
X0227621Y0159577D01*
X0227465Y0159601D01*
X0227309Y0159629D01*
X0227154Y0159660D01*
X0226999Y0159696D01*
X0226846Y0159735D01*
X0226694Y0159778D01*
X0226543Y0159825D01*
X0226393Y0159876D01*
X0226244Y0159931D01*
X0226097Y0159989D01*
X0225951Y0160051D01*
X0225807Y0160116D01*
X0225665Y0160186D01*
X0225524Y0160258D01*
X0225385Y0160335D01*
X0225249Y0160414D01*
X0225114Y0160498D01*
X0224981Y0160584D01*
X0224851Y0160674D01*
X0224723Y0160767D01*
X0224597Y0160863D01*
X0224474Y0160963D01*
X0224353Y0161065D01*
X0224235Y0161170D01*
X0224120Y0161279D01*
X0224007Y0161390D01*
X0223897Y0161504D01*
X0223790Y0161621D01*
X0223686Y0161740D01*
X0223585Y0161862D01*
X0223488Y0161987D01*
X0223393Y0162114D01*
X0223302Y0162243D01*
X0223213Y0162374D01*
X0223129Y0162508D01*
X0223047Y0162644D01*
X0222969Y0162781D01*
X0222895Y0162921D01*
X0222824Y0163063D01*
X0222756Y0163206D01*
X0222692Y0163351D01*
X0222632Y0163497D01*
X0222576Y0163645D01*
X0222523Y0163794D01*
X0222474Y0163945D01*
X0222429Y0164097D01*
X0222388Y0164250D01*
X0222350Y0164403D01*
X0222317Y0164558D01*
X0222287Y0164714D01*
X0222261Y0164870D01*
X0222240Y0165027D01*
X0222222Y0165184D01*
X0222208Y0165342D01*
X0222198Y0165500D01*
X0222192Y0165658D01*
X0222190Y0165816D01*
X0017466Y0165816D02*
X0017468Y0165974D01*
X0017474Y0166132D01*
X0017484Y0166290D01*
X0017498Y0166448D01*
X0017516Y0166605D01*
X0017537Y0166762D01*
X0017563Y0166918D01*
X0017593Y0167074D01*
X0017626Y0167229D01*
X0017664Y0167382D01*
X0017705Y0167535D01*
X0017750Y0167687D01*
X0017799Y0167838D01*
X0017852Y0167987D01*
X0017908Y0168135D01*
X0017968Y0168281D01*
X0018032Y0168426D01*
X0018100Y0168569D01*
X0018171Y0168711D01*
X0018245Y0168851D01*
X0018323Y0168988D01*
X0018405Y0169124D01*
X0018489Y0169258D01*
X0018578Y0169389D01*
X0018669Y0169518D01*
X0018764Y0169645D01*
X0018861Y0169770D01*
X0018962Y0169892D01*
X0019066Y0170011D01*
X0019173Y0170128D01*
X0019283Y0170242D01*
X0019396Y0170353D01*
X0019511Y0170462D01*
X0019629Y0170567D01*
X0019750Y0170669D01*
X0019873Y0170769D01*
X0019999Y0170865D01*
X0020127Y0170958D01*
X0020257Y0171048D01*
X0020390Y0171134D01*
X0020525Y0171218D01*
X0020661Y0171297D01*
X0020800Y0171374D01*
X0020941Y0171446D01*
X0021083Y0171516D01*
X0021227Y0171581D01*
X0021373Y0171643D01*
X0021520Y0171701D01*
X0021669Y0171756D01*
X0021819Y0171807D01*
X0021970Y0171854D01*
X0022122Y0171897D01*
X0022275Y0171936D01*
X0022430Y0171972D01*
X0022585Y0172003D01*
X0022741Y0172031D01*
X0022897Y0172055D01*
X0023054Y0172075D01*
X0023212Y0172091D01*
X0023369Y0172103D01*
X0023528Y0172111D01*
X0023686Y0172115D01*
X0023844Y0172115D01*
X0024002Y0172111D01*
X0024161Y0172103D01*
X0024318Y0172091D01*
X0024476Y0172075D01*
X0024633Y0172055D01*
X0024789Y0172031D01*
X0024945Y0172003D01*
X0025100Y0171972D01*
X0025255Y0171936D01*
X0025408Y0171897D01*
X0025560Y0171854D01*
X0025711Y0171807D01*
X0025861Y0171756D01*
X0026010Y0171701D01*
X0026157Y0171643D01*
X0026303Y0171581D01*
X0026447Y0171516D01*
X0026589Y0171446D01*
X0026730Y0171374D01*
X0026869Y0171297D01*
X0027005Y0171218D01*
X0027140Y0171134D01*
X0027273Y0171048D01*
X0027403Y0170958D01*
X0027531Y0170865D01*
X0027657Y0170769D01*
X0027780Y0170669D01*
X0027901Y0170567D01*
X0028019Y0170462D01*
X0028134Y0170353D01*
X0028247Y0170242D01*
X0028357Y0170128D01*
X0028464Y0170011D01*
X0028568Y0169892D01*
X0028669Y0169770D01*
X0028766Y0169645D01*
X0028861Y0169518D01*
X0028952Y0169389D01*
X0029041Y0169258D01*
X0029125Y0169124D01*
X0029207Y0168988D01*
X0029285Y0168851D01*
X0029359Y0168711D01*
X0029430Y0168569D01*
X0029498Y0168426D01*
X0029562Y0168281D01*
X0029622Y0168135D01*
X0029678Y0167987D01*
X0029731Y0167838D01*
X0029780Y0167687D01*
X0029825Y0167535D01*
X0029866Y0167382D01*
X0029904Y0167229D01*
X0029937Y0167074D01*
X0029967Y0166918D01*
X0029993Y0166762D01*
X0030014Y0166605D01*
X0030032Y0166448D01*
X0030046Y0166290D01*
X0030056Y0166132D01*
X0030062Y0165974D01*
X0030064Y0165816D01*
X0030062Y0165658D01*
X0030056Y0165500D01*
X0030046Y0165342D01*
X0030032Y0165184D01*
X0030014Y0165027D01*
X0029993Y0164870D01*
X0029967Y0164714D01*
X0029937Y0164558D01*
X0029904Y0164403D01*
X0029866Y0164250D01*
X0029825Y0164097D01*
X0029780Y0163945D01*
X0029731Y0163794D01*
X0029678Y0163645D01*
X0029622Y0163497D01*
X0029562Y0163351D01*
X0029498Y0163206D01*
X0029430Y0163063D01*
X0029359Y0162921D01*
X0029285Y0162781D01*
X0029207Y0162644D01*
X0029125Y0162508D01*
X0029041Y0162374D01*
X0028952Y0162243D01*
X0028861Y0162114D01*
X0028766Y0161987D01*
X0028669Y0161862D01*
X0028568Y0161740D01*
X0028464Y0161621D01*
X0028357Y0161504D01*
X0028247Y0161390D01*
X0028134Y0161279D01*
X0028019Y0161170D01*
X0027901Y0161065D01*
X0027780Y0160963D01*
X0027657Y0160863D01*
X0027531Y0160767D01*
X0027403Y0160674D01*
X0027273Y0160584D01*
X0027140Y0160498D01*
X0027005Y0160414D01*
X0026869Y0160335D01*
X0026730Y0160258D01*
X0026589Y0160186D01*
X0026447Y0160116D01*
X0026303Y0160051D01*
X0026157Y0159989D01*
X0026010Y0159931D01*
X0025861Y0159876D01*
X0025711Y0159825D01*
X0025560Y0159778D01*
X0025408Y0159735D01*
X0025255Y0159696D01*
X0025100Y0159660D01*
X0024945Y0159629D01*
X0024789Y0159601D01*
X0024633Y0159577D01*
X0024476Y0159557D01*
X0024318Y0159541D01*
X0024161Y0159529D01*
X0024002Y0159521D01*
X0023844Y0159517D01*
X0023686Y0159517D01*
X0023528Y0159521D01*
X0023369Y0159529D01*
X0023212Y0159541D01*
X0023054Y0159557D01*
X0022897Y0159577D01*
X0022741Y0159601D01*
X0022585Y0159629D01*
X0022430Y0159660D01*
X0022275Y0159696D01*
X0022122Y0159735D01*
X0021970Y0159778D01*
X0021819Y0159825D01*
X0021669Y0159876D01*
X0021520Y0159931D01*
X0021373Y0159989D01*
X0021227Y0160051D01*
X0021083Y0160116D01*
X0020941Y0160186D01*
X0020800Y0160258D01*
X0020661Y0160335D01*
X0020525Y0160414D01*
X0020390Y0160498D01*
X0020257Y0160584D01*
X0020127Y0160674D01*
X0019999Y0160767D01*
X0019873Y0160863D01*
X0019750Y0160963D01*
X0019629Y0161065D01*
X0019511Y0161170D01*
X0019396Y0161279D01*
X0019283Y0161390D01*
X0019173Y0161504D01*
X0019066Y0161621D01*
X0018962Y0161740D01*
X0018861Y0161862D01*
X0018764Y0161987D01*
X0018669Y0162114D01*
X0018578Y0162243D01*
X0018489Y0162374D01*
X0018405Y0162508D01*
X0018323Y0162644D01*
X0018245Y0162781D01*
X0018171Y0162921D01*
X0018100Y0163063D01*
X0018032Y0163206D01*
X0017968Y0163351D01*
X0017908Y0163497D01*
X0017852Y0163645D01*
X0017799Y0163794D01*
X0017750Y0163945D01*
X0017705Y0164097D01*
X0017664Y0164250D01*
X0017626Y0164403D01*
X0017593Y0164558D01*
X0017563Y0164714D01*
X0017537Y0164870D01*
X0017516Y0165027D01*
X0017498Y0165184D01*
X0017484Y0165342D01*
X0017474Y0165500D01*
X0017468Y0165658D01*
X0017466Y0165816D01*
M02*
