%
M48
M72
T01C0.02400
T02C0.02756
T03C0.03150
T04C0.03937
T05C0.04000
T06C0.05906
T07C0.11811
%
T01
X188800Y68800
X192300Y54300
X214300Y157800
X202300Y166800
X194300Y173800
T02
X285300Y74800
X295300Y74800
X296800Y56800
X306800Y56800
T03
X223328Y194800
X213485Y194800
X142174Y196000
X134100Y196000
X125570Y196000
T04
X230457Y74713
X230457Y84713
X230457Y94713
X230457Y104713
X230457Y114713
X230457Y124713
X230457Y134713
X230457Y144713
T05
X108300Y46800
X118300Y46800
X128300Y46800
X138300Y46800
X148300Y46800
X158300Y46800
X168300Y46800
X178300Y46800
X178300Y59800
X168300Y60800
X158300Y59800
X148300Y60800
X138300Y59800
X128300Y60800
X118300Y59800
X108300Y60800
X112800Y30300
X122800Y30300
X249800Y47300
X279800Y47300
X290800Y95800
X280800Y95800
X270800Y95800
X260800Y95800
X314800Y101000
X314800Y111000
X314800Y121000
X195800Y194800
X185800Y194800
X178300Y163800
X168300Y163800
X158300Y163800
X148300Y163800
X138300Y163800
X128300Y163800
X118300Y163800
X108300Y163800
X108300Y150800
X118300Y149800
X128300Y150800
X138300Y149800
X148300Y150800
X158300Y149800
X168300Y150800
X178300Y149800
T06
X150942Y196000
X116515Y195850
T07
X84300Y30800
X314800Y30800
X314800Y189800
X84300Y189800
M30
