G75*
%MOIN*%
%OFA0B0*%
%FSLAX25Y25*%
%IPPOS*%
%LPD*%
%AMOC8*
5,1,8,0,0,1.08239X$1,22.5*
%
%ADD10C,0.01000*%
%ADD11C,0.00000*%
%ADD12R,0.05906X0.05118*%
%ADD13R,0.03543X0.03150*%
D10*
X0072300Y0018800D02*
X0072300Y0203261D01*
X0327200Y0203261D01*
X0327200Y0018800D01*
X0072300Y0018800D01*
D11*
X0078394Y0030800D02*
X0078396Y0030953D01*
X0078402Y0031107D01*
X0078412Y0031260D01*
X0078426Y0031412D01*
X0078444Y0031565D01*
X0078466Y0031716D01*
X0078491Y0031867D01*
X0078521Y0032018D01*
X0078555Y0032168D01*
X0078592Y0032316D01*
X0078633Y0032464D01*
X0078678Y0032610D01*
X0078727Y0032756D01*
X0078780Y0032900D01*
X0078836Y0033042D01*
X0078896Y0033183D01*
X0078960Y0033323D01*
X0079027Y0033461D01*
X0079098Y0033597D01*
X0079173Y0033731D01*
X0079250Y0033863D01*
X0079332Y0033993D01*
X0079416Y0034121D01*
X0079504Y0034247D01*
X0079595Y0034370D01*
X0079689Y0034491D01*
X0079787Y0034609D01*
X0079887Y0034725D01*
X0079991Y0034838D01*
X0080097Y0034949D01*
X0080206Y0035057D01*
X0080318Y0035162D01*
X0080432Y0035263D01*
X0080550Y0035362D01*
X0080669Y0035458D01*
X0080791Y0035551D01*
X0080916Y0035640D01*
X0081043Y0035727D01*
X0081172Y0035809D01*
X0081303Y0035889D01*
X0081436Y0035965D01*
X0081571Y0036038D01*
X0081708Y0036107D01*
X0081847Y0036172D01*
X0081987Y0036234D01*
X0082129Y0036292D01*
X0082272Y0036347D01*
X0082417Y0036398D01*
X0082563Y0036445D01*
X0082710Y0036488D01*
X0082858Y0036527D01*
X0083007Y0036563D01*
X0083157Y0036594D01*
X0083308Y0036622D01*
X0083459Y0036646D01*
X0083612Y0036666D01*
X0083764Y0036682D01*
X0083917Y0036694D01*
X0084070Y0036702D01*
X0084223Y0036706D01*
X0084377Y0036706D01*
X0084530Y0036702D01*
X0084683Y0036694D01*
X0084836Y0036682D01*
X0084988Y0036666D01*
X0085141Y0036646D01*
X0085292Y0036622D01*
X0085443Y0036594D01*
X0085593Y0036563D01*
X0085742Y0036527D01*
X0085890Y0036488D01*
X0086037Y0036445D01*
X0086183Y0036398D01*
X0086328Y0036347D01*
X0086471Y0036292D01*
X0086613Y0036234D01*
X0086753Y0036172D01*
X0086892Y0036107D01*
X0087029Y0036038D01*
X0087164Y0035965D01*
X0087297Y0035889D01*
X0087428Y0035809D01*
X0087557Y0035727D01*
X0087684Y0035640D01*
X0087809Y0035551D01*
X0087931Y0035458D01*
X0088050Y0035362D01*
X0088168Y0035263D01*
X0088282Y0035162D01*
X0088394Y0035057D01*
X0088503Y0034949D01*
X0088609Y0034838D01*
X0088713Y0034725D01*
X0088813Y0034609D01*
X0088911Y0034491D01*
X0089005Y0034370D01*
X0089096Y0034247D01*
X0089184Y0034121D01*
X0089268Y0033993D01*
X0089350Y0033863D01*
X0089427Y0033731D01*
X0089502Y0033597D01*
X0089573Y0033461D01*
X0089640Y0033323D01*
X0089704Y0033183D01*
X0089764Y0033042D01*
X0089820Y0032900D01*
X0089873Y0032756D01*
X0089922Y0032610D01*
X0089967Y0032464D01*
X0090008Y0032316D01*
X0090045Y0032168D01*
X0090079Y0032018D01*
X0090109Y0031867D01*
X0090134Y0031716D01*
X0090156Y0031565D01*
X0090174Y0031412D01*
X0090188Y0031260D01*
X0090198Y0031107D01*
X0090204Y0030953D01*
X0090206Y0030800D01*
X0090204Y0030647D01*
X0090198Y0030493D01*
X0090188Y0030340D01*
X0090174Y0030188D01*
X0090156Y0030035D01*
X0090134Y0029884D01*
X0090109Y0029733D01*
X0090079Y0029582D01*
X0090045Y0029432D01*
X0090008Y0029284D01*
X0089967Y0029136D01*
X0089922Y0028990D01*
X0089873Y0028844D01*
X0089820Y0028700D01*
X0089764Y0028558D01*
X0089704Y0028417D01*
X0089640Y0028277D01*
X0089573Y0028139D01*
X0089502Y0028003D01*
X0089427Y0027869D01*
X0089350Y0027737D01*
X0089268Y0027607D01*
X0089184Y0027479D01*
X0089096Y0027353D01*
X0089005Y0027230D01*
X0088911Y0027109D01*
X0088813Y0026991D01*
X0088713Y0026875D01*
X0088609Y0026762D01*
X0088503Y0026651D01*
X0088394Y0026543D01*
X0088282Y0026438D01*
X0088168Y0026337D01*
X0088050Y0026238D01*
X0087931Y0026142D01*
X0087809Y0026049D01*
X0087684Y0025960D01*
X0087557Y0025873D01*
X0087428Y0025791D01*
X0087297Y0025711D01*
X0087164Y0025635D01*
X0087029Y0025562D01*
X0086892Y0025493D01*
X0086753Y0025428D01*
X0086613Y0025366D01*
X0086471Y0025308D01*
X0086328Y0025253D01*
X0086183Y0025202D01*
X0086037Y0025155D01*
X0085890Y0025112D01*
X0085742Y0025073D01*
X0085593Y0025037D01*
X0085443Y0025006D01*
X0085292Y0024978D01*
X0085141Y0024954D01*
X0084988Y0024934D01*
X0084836Y0024918D01*
X0084683Y0024906D01*
X0084530Y0024898D01*
X0084377Y0024894D01*
X0084223Y0024894D01*
X0084070Y0024898D01*
X0083917Y0024906D01*
X0083764Y0024918D01*
X0083612Y0024934D01*
X0083459Y0024954D01*
X0083308Y0024978D01*
X0083157Y0025006D01*
X0083007Y0025037D01*
X0082858Y0025073D01*
X0082710Y0025112D01*
X0082563Y0025155D01*
X0082417Y0025202D01*
X0082272Y0025253D01*
X0082129Y0025308D01*
X0081987Y0025366D01*
X0081847Y0025428D01*
X0081708Y0025493D01*
X0081571Y0025562D01*
X0081436Y0025635D01*
X0081303Y0025711D01*
X0081172Y0025791D01*
X0081043Y0025873D01*
X0080916Y0025960D01*
X0080791Y0026049D01*
X0080669Y0026142D01*
X0080550Y0026238D01*
X0080432Y0026337D01*
X0080318Y0026438D01*
X0080206Y0026543D01*
X0080097Y0026651D01*
X0079991Y0026762D01*
X0079887Y0026875D01*
X0079787Y0026991D01*
X0079689Y0027109D01*
X0079595Y0027230D01*
X0079504Y0027353D01*
X0079416Y0027479D01*
X0079332Y0027607D01*
X0079250Y0027737D01*
X0079173Y0027869D01*
X0079098Y0028003D01*
X0079027Y0028139D01*
X0078960Y0028277D01*
X0078896Y0028417D01*
X0078836Y0028558D01*
X0078780Y0028700D01*
X0078727Y0028844D01*
X0078678Y0028990D01*
X0078633Y0029136D01*
X0078592Y0029284D01*
X0078555Y0029432D01*
X0078521Y0029582D01*
X0078491Y0029733D01*
X0078466Y0029884D01*
X0078444Y0030035D01*
X0078426Y0030188D01*
X0078412Y0030340D01*
X0078402Y0030493D01*
X0078396Y0030647D01*
X0078394Y0030800D01*
X0308894Y0030800D02*
X0308896Y0030953D01*
X0308902Y0031107D01*
X0308912Y0031260D01*
X0308926Y0031412D01*
X0308944Y0031565D01*
X0308966Y0031716D01*
X0308991Y0031867D01*
X0309021Y0032018D01*
X0309055Y0032168D01*
X0309092Y0032316D01*
X0309133Y0032464D01*
X0309178Y0032610D01*
X0309227Y0032756D01*
X0309280Y0032900D01*
X0309336Y0033042D01*
X0309396Y0033183D01*
X0309460Y0033323D01*
X0309527Y0033461D01*
X0309598Y0033597D01*
X0309673Y0033731D01*
X0309750Y0033863D01*
X0309832Y0033993D01*
X0309916Y0034121D01*
X0310004Y0034247D01*
X0310095Y0034370D01*
X0310189Y0034491D01*
X0310287Y0034609D01*
X0310387Y0034725D01*
X0310491Y0034838D01*
X0310597Y0034949D01*
X0310706Y0035057D01*
X0310818Y0035162D01*
X0310932Y0035263D01*
X0311050Y0035362D01*
X0311169Y0035458D01*
X0311291Y0035551D01*
X0311416Y0035640D01*
X0311543Y0035727D01*
X0311672Y0035809D01*
X0311803Y0035889D01*
X0311936Y0035965D01*
X0312071Y0036038D01*
X0312208Y0036107D01*
X0312347Y0036172D01*
X0312487Y0036234D01*
X0312629Y0036292D01*
X0312772Y0036347D01*
X0312917Y0036398D01*
X0313063Y0036445D01*
X0313210Y0036488D01*
X0313358Y0036527D01*
X0313507Y0036563D01*
X0313657Y0036594D01*
X0313808Y0036622D01*
X0313959Y0036646D01*
X0314112Y0036666D01*
X0314264Y0036682D01*
X0314417Y0036694D01*
X0314570Y0036702D01*
X0314723Y0036706D01*
X0314877Y0036706D01*
X0315030Y0036702D01*
X0315183Y0036694D01*
X0315336Y0036682D01*
X0315488Y0036666D01*
X0315641Y0036646D01*
X0315792Y0036622D01*
X0315943Y0036594D01*
X0316093Y0036563D01*
X0316242Y0036527D01*
X0316390Y0036488D01*
X0316537Y0036445D01*
X0316683Y0036398D01*
X0316828Y0036347D01*
X0316971Y0036292D01*
X0317113Y0036234D01*
X0317253Y0036172D01*
X0317392Y0036107D01*
X0317529Y0036038D01*
X0317664Y0035965D01*
X0317797Y0035889D01*
X0317928Y0035809D01*
X0318057Y0035727D01*
X0318184Y0035640D01*
X0318309Y0035551D01*
X0318431Y0035458D01*
X0318550Y0035362D01*
X0318668Y0035263D01*
X0318782Y0035162D01*
X0318894Y0035057D01*
X0319003Y0034949D01*
X0319109Y0034838D01*
X0319213Y0034725D01*
X0319313Y0034609D01*
X0319411Y0034491D01*
X0319505Y0034370D01*
X0319596Y0034247D01*
X0319684Y0034121D01*
X0319768Y0033993D01*
X0319850Y0033863D01*
X0319927Y0033731D01*
X0320002Y0033597D01*
X0320073Y0033461D01*
X0320140Y0033323D01*
X0320204Y0033183D01*
X0320264Y0033042D01*
X0320320Y0032900D01*
X0320373Y0032756D01*
X0320422Y0032610D01*
X0320467Y0032464D01*
X0320508Y0032316D01*
X0320545Y0032168D01*
X0320579Y0032018D01*
X0320609Y0031867D01*
X0320634Y0031716D01*
X0320656Y0031565D01*
X0320674Y0031412D01*
X0320688Y0031260D01*
X0320698Y0031107D01*
X0320704Y0030953D01*
X0320706Y0030800D01*
X0320704Y0030647D01*
X0320698Y0030493D01*
X0320688Y0030340D01*
X0320674Y0030188D01*
X0320656Y0030035D01*
X0320634Y0029884D01*
X0320609Y0029733D01*
X0320579Y0029582D01*
X0320545Y0029432D01*
X0320508Y0029284D01*
X0320467Y0029136D01*
X0320422Y0028990D01*
X0320373Y0028844D01*
X0320320Y0028700D01*
X0320264Y0028558D01*
X0320204Y0028417D01*
X0320140Y0028277D01*
X0320073Y0028139D01*
X0320002Y0028003D01*
X0319927Y0027869D01*
X0319850Y0027737D01*
X0319768Y0027607D01*
X0319684Y0027479D01*
X0319596Y0027353D01*
X0319505Y0027230D01*
X0319411Y0027109D01*
X0319313Y0026991D01*
X0319213Y0026875D01*
X0319109Y0026762D01*
X0319003Y0026651D01*
X0318894Y0026543D01*
X0318782Y0026438D01*
X0318668Y0026337D01*
X0318550Y0026238D01*
X0318431Y0026142D01*
X0318309Y0026049D01*
X0318184Y0025960D01*
X0318057Y0025873D01*
X0317928Y0025791D01*
X0317797Y0025711D01*
X0317664Y0025635D01*
X0317529Y0025562D01*
X0317392Y0025493D01*
X0317253Y0025428D01*
X0317113Y0025366D01*
X0316971Y0025308D01*
X0316828Y0025253D01*
X0316683Y0025202D01*
X0316537Y0025155D01*
X0316390Y0025112D01*
X0316242Y0025073D01*
X0316093Y0025037D01*
X0315943Y0025006D01*
X0315792Y0024978D01*
X0315641Y0024954D01*
X0315488Y0024934D01*
X0315336Y0024918D01*
X0315183Y0024906D01*
X0315030Y0024898D01*
X0314877Y0024894D01*
X0314723Y0024894D01*
X0314570Y0024898D01*
X0314417Y0024906D01*
X0314264Y0024918D01*
X0314112Y0024934D01*
X0313959Y0024954D01*
X0313808Y0024978D01*
X0313657Y0025006D01*
X0313507Y0025037D01*
X0313358Y0025073D01*
X0313210Y0025112D01*
X0313063Y0025155D01*
X0312917Y0025202D01*
X0312772Y0025253D01*
X0312629Y0025308D01*
X0312487Y0025366D01*
X0312347Y0025428D01*
X0312208Y0025493D01*
X0312071Y0025562D01*
X0311936Y0025635D01*
X0311803Y0025711D01*
X0311672Y0025791D01*
X0311543Y0025873D01*
X0311416Y0025960D01*
X0311291Y0026049D01*
X0311169Y0026142D01*
X0311050Y0026238D01*
X0310932Y0026337D01*
X0310818Y0026438D01*
X0310706Y0026543D01*
X0310597Y0026651D01*
X0310491Y0026762D01*
X0310387Y0026875D01*
X0310287Y0026991D01*
X0310189Y0027109D01*
X0310095Y0027230D01*
X0310004Y0027353D01*
X0309916Y0027479D01*
X0309832Y0027607D01*
X0309750Y0027737D01*
X0309673Y0027869D01*
X0309598Y0028003D01*
X0309527Y0028139D01*
X0309460Y0028277D01*
X0309396Y0028417D01*
X0309336Y0028558D01*
X0309280Y0028700D01*
X0309227Y0028844D01*
X0309178Y0028990D01*
X0309133Y0029136D01*
X0309092Y0029284D01*
X0309055Y0029432D01*
X0309021Y0029582D01*
X0308991Y0029733D01*
X0308966Y0029884D01*
X0308944Y0030035D01*
X0308926Y0030188D01*
X0308912Y0030340D01*
X0308902Y0030493D01*
X0308896Y0030647D01*
X0308894Y0030800D01*
X0308894Y0189800D02*
X0308896Y0189953D01*
X0308902Y0190107D01*
X0308912Y0190260D01*
X0308926Y0190412D01*
X0308944Y0190565D01*
X0308966Y0190716D01*
X0308991Y0190867D01*
X0309021Y0191018D01*
X0309055Y0191168D01*
X0309092Y0191316D01*
X0309133Y0191464D01*
X0309178Y0191610D01*
X0309227Y0191756D01*
X0309280Y0191900D01*
X0309336Y0192042D01*
X0309396Y0192183D01*
X0309460Y0192323D01*
X0309527Y0192461D01*
X0309598Y0192597D01*
X0309673Y0192731D01*
X0309750Y0192863D01*
X0309832Y0192993D01*
X0309916Y0193121D01*
X0310004Y0193247D01*
X0310095Y0193370D01*
X0310189Y0193491D01*
X0310287Y0193609D01*
X0310387Y0193725D01*
X0310491Y0193838D01*
X0310597Y0193949D01*
X0310706Y0194057D01*
X0310818Y0194162D01*
X0310932Y0194263D01*
X0311050Y0194362D01*
X0311169Y0194458D01*
X0311291Y0194551D01*
X0311416Y0194640D01*
X0311543Y0194727D01*
X0311672Y0194809D01*
X0311803Y0194889D01*
X0311936Y0194965D01*
X0312071Y0195038D01*
X0312208Y0195107D01*
X0312347Y0195172D01*
X0312487Y0195234D01*
X0312629Y0195292D01*
X0312772Y0195347D01*
X0312917Y0195398D01*
X0313063Y0195445D01*
X0313210Y0195488D01*
X0313358Y0195527D01*
X0313507Y0195563D01*
X0313657Y0195594D01*
X0313808Y0195622D01*
X0313959Y0195646D01*
X0314112Y0195666D01*
X0314264Y0195682D01*
X0314417Y0195694D01*
X0314570Y0195702D01*
X0314723Y0195706D01*
X0314877Y0195706D01*
X0315030Y0195702D01*
X0315183Y0195694D01*
X0315336Y0195682D01*
X0315488Y0195666D01*
X0315641Y0195646D01*
X0315792Y0195622D01*
X0315943Y0195594D01*
X0316093Y0195563D01*
X0316242Y0195527D01*
X0316390Y0195488D01*
X0316537Y0195445D01*
X0316683Y0195398D01*
X0316828Y0195347D01*
X0316971Y0195292D01*
X0317113Y0195234D01*
X0317253Y0195172D01*
X0317392Y0195107D01*
X0317529Y0195038D01*
X0317664Y0194965D01*
X0317797Y0194889D01*
X0317928Y0194809D01*
X0318057Y0194727D01*
X0318184Y0194640D01*
X0318309Y0194551D01*
X0318431Y0194458D01*
X0318550Y0194362D01*
X0318668Y0194263D01*
X0318782Y0194162D01*
X0318894Y0194057D01*
X0319003Y0193949D01*
X0319109Y0193838D01*
X0319213Y0193725D01*
X0319313Y0193609D01*
X0319411Y0193491D01*
X0319505Y0193370D01*
X0319596Y0193247D01*
X0319684Y0193121D01*
X0319768Y0192993D01*
X0319850Y0192863D01*
X0319927Y0192731D01*
X0320002Y0192597D01*
X0320073Y0192461D01*
X0320140Y0192323D01*
X0320204Y0192183D01*
X0320264Y0192042D01*
X0320320Y0191900D01*
X0320373Y0191756D01*
X0320422Y0191610D01*
X0320467Y0191464D01*
X0320508Y0191316D01*
X0320545Y0191168D01*
X0320579Y0191018D01*
X0320609Y0190867D01*
X0320634Y0190716D01*
X0320656Y0190565D01*
X0320674Y0190412D01*
X0320688Y0190260D01*
X0320698Y0190107D01*
X0320704Y0189953D01*
X0320706Y0189800D01*
X0320704Y0189647D01*
X0320698Y0189493D01*
X0320688Y0189340D01*
X0320674Y0189188D01*
X0320656Y0189035D01*
X0320634Y0188884D01*
X0320609Y0188733D01*
X0320579Y0188582D01*
X0320545Y0188432D01*
X0320508Y0188284D01*
X0320467Y0188136D01*
X0320422Y0187990D01*
X0320373Y0187844D01*
X0320320Y0187700D01*
X0320264Y0187558D01*
X0320204Y0187417D01*
X0320140Y0187277D01*
X0320073Y0187139D01*
X0320002Y0187003D01*
X0319927Y0186869D01*
X0319850Y0186737D01*
X0319768Y0186607D01*
X0319684Y0186479D01*
X0319596Y0186353D01*
X0319505Y0186230D01*
X0319411Y0186109D01*
X0319313Y0185991D01*
X0319213Y0185875D01*
X0319109Y0185762D01*
X0319003Y0185651D01*
X0318894Y0185543D01*
X0318782Y0185438D01*
X0318668Y0185337D01*
X0318550Y0185238D01*
X0318431Y0185142D01*
X0318309Y0185049D01*
X0318184Y0184960D01*
X0318057Y0184873D01*
X0317928Y0184791D01*
X0317797Y0184711D01*
X0317664Y0184635D01*
X0317529Y0184562D01*
X0317392Y0184493D01*
X0317253Y0184428D01*
X0317113Y0184366D01*
X0316971Y0184308D01*
X0316828Y0184253D01*
X0316683Y0184202D01*
X0316537Y0184155D01*
X0316390Y0184112D01*
X0316242Y0184073D01*
X0316093Y0184037D01*
X0315943Y0184006D01*
X0315792Y0183978D01*
X0315641Y0183954D01*
X0315488Y0183934D01*
X0315336Y0183918D01*
X0315183Y0183906D01*
X0315030Y0183898D01*
X0314877Y0183894D01*
X0314723Y0183894D01*
X0314570Y0183898D01*
X0314417Y0183906D01*
X0314264Y0183918D01*
X0314112Y0183934D01*
X0313959Y0183954D01*
X0313808Y0183978D01*
X0313657Y0184006D01*
X0313507Y0184037D01*
X0313358Y0184073D01*
X0313210Y0184112D01*
X0313063Y0184155D01*
X0312917Y0184202D01*
X0312772Y0184253D01*
X0312629Y0184308D01*
X0312487Y0184366D01*
X0312347Y0184428D01*
X0312208Y0184493D01*
X0312071Y0184562D01*
X0311936Y0184635D01*
X0311803Y0184711D01*
X0311672Y0184791D01*
X0311543Y0184873D01*
X0311416Y0184960D01*
X0311291Y0185049D01*
X0311169Y0185142D01*
X0311050Y0185238D01*
X0310932Y0185337D01*
X0310818Y0185438D01*
X0310706Y0185543D01*
X0310597Y0185651D01*
X0310491Y0185762D01*
X0310387Y0185875D01*
X0310287Y0185991D01*
X0310189Y0186109D01*
X0310095Y0186230D01*
X0310004Y0186353D01*
X0309916Y0186479D01*
X0309832Y0186607D01*
X0309750Y0186737D01*
X0309673Y0186869D01*
X0309598Y0187003D01*
X0309527Y0187139D01*
X0309460Y0187277D01*
X0309396Y0187417D01*
X0309336Y0187558D01*
X0309280Y0187700D01*
X0309227Y0187844D01*
X0309178Y0187990D01*
X0309133Y0188136D01*
X0309092Y0188284D01*
X0309055Y0188432D01*
X0309021Y0188582D01*
X0308991Y0188733D01*
X0308966Y0188884D01*
X0308944Y0189035D01*
X0308926Y0189188D01*
X0308912Y0189340D01*
X0308902Y0189493D01*
X0308896Y0189647D01*
X0308894Y0189800D01*
X0078394Y0189800D02*
X0078396Y0189953D01*
X0078402Y0190107D01*
X0078412Y0190260D01*
X0078426Y0190412D01*
X0078444Y0190565D01*
X0078466Y0190716D01*
X0078491Y0190867D01*
X0078521Y0191018D01*
X0078555Y0191168D01*
X0078592Y0191316D01*
X0078633Y0191464D01*
X0078678Y0191610D01*
X0078727Y0191756D01*
X0078780Y0191900D01*
X0078836Y0192042D01*
X0078896Y0192183D01*
X0078960Y0192323D01*
X0079027Y0192461D01*
X0079098Y0192597D01*
X0079173Y0192731D01*
X0079250Y0192863D01*
X0079332Y0192993D01*
X0079416Y0193121D01*
X0079504Y0193247D01*
X0079595Y0193370D01*
X0079689Y0193491D01*
X0079787Y0193609D01*
X0079887Y0193725D01*
X0079991Y0193838D01*
X0080097Y0193949D01*
X0080206Y0194057D01*
X0080318Y0194162D01*
X0080432Y0194263D01*
X0080550Y0194362D01*
X0080669Y0194458D01*
X0080791Y0194551D01*
X0080916Y0194640D01*
X0081043Y0194727D01*
X0081172Y0194809D01*
X0081303Y0194889D01*
X0081436Y0194965D01*
X0081571Y0195038D01*
X0081708Y0195107D01*
X0081847Y0195172D01*
X0081987Y0195234D01*
X0082129Y0195292D01*
X0082272Y0195347D01*
X0082417Y0195398D01*
X0082563Y0195445D01*
X0082710Y0195488D01*
X0082858Y0195527D01*
X0083007Y0195563D01*
X0083157Y0195594D01*
X0083308Y0195622D01*
X0083459Y0195646D01*
X0083612Y0195666D01*
X0083764Y0195682D01*
X0083917Y0195694D01*
X0084070Y0195702D01*
X0084223Y0195706D01*
X0084377Y0195706D01*
X0084530Y0195702D01*
X0084683Y0195694D01*
X0084836Y0195682D01*
X0084988Y0195666D01*
X0085141Y0195646D01*
X0085292Y0195622D01*
X0085443Y0195594D01*
X0085593Y0195563D01*
X0085742Y0195527D01*
X0085890Y0195488D01*
X0086037Y0195445D01*
X0086183Y0195398D01*
X0086328Y0195347D01*
X0086471Y0195292D01*
X0086613Y0195234D01*
X0086753Y0195172D01*
X0086892Y0195107D01*
X0087029Y0195038D01*
X0087164Y0194965D01*
X0087297Y0194889D01*
X0087428Y0194809D01*
X0087557Y0194727D01*
X0087684Y0194640D01*
X0087809Y0194551D01*
X0087931Y0194458D01*
X0088050Y0194362D01*
X0088168Y0194263D01*
X0088282Y0194162D01*
X0088394Y0194057D01*
X0088503Y0193949D01*
X0088609Y0193838D01*
X0088713Y0193725D01*
X0088813Y0193609D01*
X0088911Y0193491D01*
X0089005Y0193370D01*
X0089096Y0193247D01*
X0089184Y0193121D01*
X0089268Y0192993D01*
X0089350Y0192863D01*
X0089427Y0192731D01*
X0089502Y0192597D01*
X0089573Y0192461D01*
X0089640Y0192323D01*
X0089704Y0192183D01*
X0089764Y0192042D01*
X0089820Y0191900D01*
X0089873Y0191756D01*
X0089922Y0191610D01*
X0089967Y0191464D01*
X0090008Y0191316D01*
X0090045Y0191168D01*
X0090079Y0191018D01*
X0090109Y0190867D01*
X0090134Y0190716D01*
X0090156Y0190565D01*
X0090174Y0190412D01*
X0090188Y0190260D01*
X0090198Y0190107D01*
X0090204Y0189953D01*
X0090206Y0189800D01*
X0090204Y0189647D01*
X0090198Y0189493D01*
X0090188Y0189340D01*
X0090174Y0189188D01*
X0090156Y0189035D01*
X0090134Y0188884D01*
X0090109Y0188733D01*
X0090079Y0188582D01*
X0090045Y0188432D01*
X0090008Y0188284D01*
X0089967Y0188136D01*
X0089922Y0187990D01*
X0089873Y0187844D01*
X0089820Y0187700D01*
X0089764Y0187558D01*
X0089704Y0187417D01*
X0089640Y0187277D01*
X0089573Y0187139D01*
X0089502Y0187003D01*
X0089427Y0186869D01*
X0089350Y0186737D01*
X0089268Y0186607D01*
X0089184Y0186479D01*
X0089096Y0186353D01*
X0089005Y0186230D01*
X0088911Y0186109D01*
X0088813Y0185991D01*
X0088713Y0185875D01*
X0088609Y0185762D01*
X0088503Y0185651D01*
X0088394Y0185543D01*
X0088282Y0185438D01*
X0088168Y0185337D01*
X0088050Y0185238D01*
X0087931Y0185142D01*
X0087809Y0185049D01*
X0087684Y0184960D01*
X0087557Y0184873D01*
X0087428Y0184791D01*
X0087297Y0184711D01*
X0087164Y0184635D01*
X0087029Y0184562D01*
X0086892Y0184493D01*
X0086753Y0184428D01*
X0086613Y0184366D01*
X0086471Y0184308D01*
X0086328Y0184253D01*
X0086183Y0184202D01*
X0086037Y0184155D01*
X0085890Y0184112D01*
X0085742Y0184073D01*
X0085593Y0184037D01*
X0085443Y0184006D01*
X0085292Y0183978D01*
X0085141Y0183954D01*
X0084988Y0183934D01*
X0084836Y0183918D01*
X0084683Y0183906D01*
X0084530Y0183898D01*
X0084377Y0183894D01*
X0084223Y0183894D01*
X0084070Y0183898D01*
X0083917Y0183906D01*
X0083764Y0183918D01*
X0083612Y0183934D01*
X0083459Y0183954D01*
X0083308Y0183978D01*
X0083157Y0184006D01*
X0083007Y0184037D01*
X0082858Y0184073D01*
X0082710Y0184112D01*
X0082563Y0184155D01*
X0082417Y0184202D01*
X0082272Y0184253D01*
X0082129Y0184308D01*
X0081987Y0184366D01*
X0081847Y0184428D01*
X0081708Y0184493D01*
X0081571Y0184562D01*
X0081436Y0184635D01*
X0081303Y0184711D01*
X0081172Y0184791D01*
X0081043Y0184873D01*
X0080916Y0184960D01*
X0080791Y0185049D01*
X0080669Y0185142D01*
X0080550Y0185238D01*
X0080432Y0185337D01*
X0080318Y0185438D01*
X0080206Y0185543D01*
X0080097Y0185651D01*
X0079991Y0185762D01*
X0079887Y0185875D01*
X0079787Y0185991D01*
X0079689Y0186109D01*
X0079595Y0186230D01*
X0079504Y0186353D01*
X0079416Y0186479D01*
X0079332Y0186607D01*
X0079250Y0186737D01*
X0079173Y0186869D01*
X0079098Y0187003D01*
X0079027Y0187139D01*
X0078960Y0187277D01*
X0078896Y0187417D01*
X0078836Y0187558D01*
X0078780Y0187700D01*
X0078727Y0187844D01*
X0078678Y0187990D01*
X0078633Y0188136D01*
X0078592Y0188284D01*
X0078555Y0188432D01*
X0078521Y0188582D01*
X0078491Y0188733D01*
X0078466Y0188884D01*
X0078444Y0189035D01*
X0078426Y0189188D01*
X0078412Y0189340D01*
X0078402Y0189493D01*
X0078396Y0189647D01*
X0078394Y0189800D01*
D12*
X0210800Y0178540D03*
X0210800Y0171060D03*
X0232300Y0171060D03*
X0232300Y0178540D03*
X0204300Y0046540D03*
X0204300Y0039060D03*
D13*
X0217363Y0038560D03*
X0225631Y0042300D03*
X0217363Y0046040D03*
M02*
